<svg xmlns="http://www.w3.org/2000/svg" viewBox="0 0 400 300" width="400" height="300">
  <defs>
    <radialGradient id="bg" cx="50%" cy="60%" r="80%">
      <stop offset="0%" stop-color="#4a1fa8"/>
      <stop offset="60%" stop-color="#1e0b5e"/>
      <stop offset="100%" stop-color="#0a0520"/>
    </radialGradient>
    <radialGradient id="glow" cx="50%" cy="45%" r="40%">
      <stop offset="0%" stop-color="#f9ca24" stop-opacity="0.6"/>
      <stop offset="100%" stop-color="#f9ca24" stop-opacity="0"/>
    </radialGradient>
  </defs>
  <rect width="400" height="300" fill="url(#bg)"/>
  <rect width="400" height="300" fill="url(#glow)"/>
  <!-- Горы -->
  <polygon points="0,220 80,100 160,220" fill="#2d1670" opacity="0.9"/>
  <polygon points="100,220 200,60 300,220" fill="#3a1d8a" opacity="0.95"/>
  <polygon points="240,220 330,90 400,220" fill="#2d1670" opacity="0.9"/>
  <!-- Солнце/луна -->
  <circle cx="200" cy="90" r="36" fill="#f9ca24" opacity="0.9"/>
  <circle cx="200" cy="90" r="50" fill="#f9ca24" opacity="0.15"/>
  <circle cx="200" cy="90" r="66" fill="#f9ca24" opacity="0.07"/>
  <!-- Лучи -->
  <line x1="200" y1="34" x2="200" y2="20" stroke="#f9ca24" stroke-width="2" opacity="0.5"/>
  <line x1="200" y1="146" x2="200" y2="160" stroke="#f9ca24" stroke-width="2" opacity="0.5"/>
  <line x1="144" y1="90" x2="130" y2="90" stroke="#f9ca24" stroke-width="2" opacity="0.5"/>
  <line x1="256" y1="90" x2="270" y2="90" stroke="#f9ca24" stroke-width="2" opacity="0.5"/>
  <!-- Звёзды -->
  <circle cx="60" cy="40" r="1.5" fill="#fff" opacity="0.8"/>
  <circle cx="340" cy="30" r="1" fill="#fff" opacity="0.7"/>
  <circle cx="140" cy="25" r="1.5" fill="#fff" opacity="0.9"/>
  <circle cx="290" cy="50" r="1" fill="#fff" opacity="0.6"/>
  <circle cx="30" cy="80" r="1" fill="#fff" opacity="0.5"/>
  <circle cx="370" cy="70" r="1.5" fill="#fff" opacity="0.7"/>
  <!-- Силуэт медитирующего -->
  <ellipse cx="200" cy="216" rx="18" ry="6" fill="#1a0c50" opacity="0.7"/>
  <path d="M192,216 Q196,195 200,190 Q204,195 208,216" fill="#1a0c50" opacity="0.85"/>
  <circle cx="200" cy="185" r="7" fill="#1a0c50" opacity="0.85"/>
  <!-- Отражение в воде -->
  <rect x="0" y="220" width="400" height="80" fill="#0a0520" opacity="0.6"/>
  <ellipse cx="200" cy="220" rx="200" ry="8" fill="#2d1670" opacity="0.4"/>
</svg>
